<mxfile host="65bd71144e">
    <diagram id="HIP3nbAZw_EuaXWnEj3U" name="Page-1">
        <mxGraphModel dx="532" dy="380" grid="1" gridSize="10" guides="1" tooltips="1" connect="1" arrows="1" fold="1" page="1" pageScale="1" pageWidth="850" pageHeight="1100" math="0" shadow="0">
            <root>
                <mxCell id="0"/>
                <mxCell id="1" parent="0"/>
                <mxCell id="7" value="&lt;div style=&quot;display: flex; flex-flow: row; flex-shrink: 0; box-sizing: border-box; align-self: stretch; align-items: center; height: 64px; margin: 0px; padding: 0px 40px 0px 80px; color: rgb(255, 255, 255); font-family: Helvetica, Arial, sans-serif; font-size: 14px; font-weight: 400; text-align: start;&quot; class=&quot;mdl-layout__header-row&quot;&gt;&lt;span style=&quot;display: block; position: relative; font-family: Roboto, Helvetica, Arial, sans-serif; font-size: 20px; line-height: 1; letter-spacing: 0.02em; box-sizing: border-box; flex-shrink: 0;&quot; class=&quot;mdl-layout-title&quot;&gt;Sum of natural numbers using for loop, in JS&lt;/span&gt;&lt;div&gt;&lt;br&gt;&lt;/div&gt;&lt;/div&gt;" style="swimlane;whiteSpace=wrap;html=1;startSize=70;" parent="1" vertex="1">
                    <mxGeometry x="40" y="40" width="760" height="480" as="geometry"/>
                </mxCell>
                <mxCell id="8" value="Enter the integer you want in this equation." style="text;strokeColor=none;align=center;fillColor=none;html=1;verticalAlign=middle;whiteSpace=wrap;rounded=0;" parent="7" vertex="1">
                    <mxGeometry x="20" y="80" width="250" height="30" as="geometry"/>
                </mxCell>
                <mxCell id="9" value="Calculate" style="rounded=1;whiteSpace=wrap;html=1;" vertex="1" parent="7">
                    <mxGeometry x="30" y="170" width="80" height="30" as="geometry"/>
                </mxCell>
                <mxCell id="10" value="" style="endArrow=none;html=1;" edge="1" parent="7">
                    <mxGeometry width="50" height="50" relative="1" as="geometry">
                        <mxPoint x="30" y="150" as="sourcePoint"/>
                        <mxPoint x="230" y="150" as="targetPoint"/>
                    </mxGeometry>
                </mxCell>
                <mxCell id="11" value="Image of Sum of natural number formula" style="whiteSpace=wrap;html=1;aspect=fixed;" vertex="1" parent="7">
                    <mxGeometry x="520" y="90" width="200" height="200" as="geometry"/>
                </mxCell>
            </root>
        </mxGraphModel>
    </diagram>
</mxfile>